<svg width="835" height="220" viewBox="0 0 835 220" fill="none" xmlns="http://www.w3.org/2000/svg">
<path d="M278.248 169.62C270.688 169.62 264.046 168.216 258.322 165.408C252.706 162.492 248.332 158.442 245.2 153.258C242.176 147.966 240.664 141.756 240.664 134.628V83.112C240.664 75.876 242.176 69.666 245.2 64.482C248.332 59.298 252.706 55.302 258.322 52.494C264.046 49.578 270.688 48.12 278.248 48.12C285.916 48.12 292.504 49.578 298.012 52.494C303.628 55.302 308.002 59.298 311.134 64.482C314.266 69.666 315.832 75.876 315.832 83.112H295.42C295.42 77.496 293.908 73.23 290.884 70.314C287.968 67.398 283.756 65.94 278.248 65.94C272.74 65.94 268.474 67.398 265.45 70.314C262.426 73.23 260.914 77.442 260.914 82.95V134.628C260.914 140.136 262.426 144.402 265.45 147.426C268.474 150.45 272.74 151.962 278.248 151.962C283.756 151.962 287.968 150.45 290.884 147.426C293.908 144.402 295.42 140.136 295.42 134.628V122.64H275.332V105.144H315.832V134.628C315.832 141.756 314.266 147.966 311.134 153.258C308.002 158.442 303.628 162.492 298.012 165.408C292.504 168.216 285.916 169.62 278.248 169.62ZM359.995 169.62C350.815 169.62 343.579 167.19 338.287 162.33C332.995 157.47 330.349 150.936 330.349 142.728C330.349 133.98 333.265 127.23 339.097 122.478C344.929 117.726 353.191 115.35 363.883 115.35H386.077V107.736C386.077 103.416 384.673 100.068 381.865 97.692C379.057 95.208 375.223 93.966 370.363 93.966C365.935 93.966 362.263 94.938 359.347 96.882C356.431 98.826 354.703 101.472 354.163 104.82H334.399C335.371 96.396 339.151 89.7 345.739 84.732C352.327 79.764 360.751 77.28 371.011 77.28C381.919 77.28 390.505 80.034 396.769 85.542C403.141 90.942 406.327 98.286 406.327 107.574V168H386.725V152.448H383.485L386.725 148.074C386.725 154.662 384.295 159.9 379.435 163.788C374.575 167.676 368.095 169.62 359.995 169.62ZM366.637 154.392C372.361 154.392 377.005 152.934 380.569 150.018C384.241 147.102 386.077 143.322 386.077 138.678V127.824H364.207C360.103 127.824 356.809 129.012 354.325 131.388C351.841 133.764 350.599 136.896 350.599 140.784C350.599 144.996 352.003 148.344 354.811 150.828C357.727 153.204 361.669 154.392 366.637 154.392ZM458.751 169.458C451.947 169.458 446.007 168.378 440.931 166.218C435.855 164.058 431.859 161.088 428.943 157.308C426.135 153.42 424.623 148.884 424.407 143.7H444.657C444.873 146.508 446.223 148.776 448.707 150.504C451.299 152.232 454.647 153.096 458.751 153.096H465.879C470.847 153.096 474.573 152.124 477.057 150.18C479.541 148.236 480.783 145.59 480.783 142.242C480.783 139.11 479.649 136.68 477.381 134.952C475.221 133.116 471.819 131.928 467.175 131.388L456.159 129.768C446.007 128.364 438.555 125.664 433.803 121.668C429.051 117.672 426.675 111.678 426.675 103.686C426.675 95.37 429.483 88.944 435.099 84.408C440.715 79.764 448.977 77.442 459.885 77.442H466.041C475.977 77.442 483.915 79.656 489.855 84.084C495.795 88.512 498.981 94.452 499.413 101.904H479.163C478.839 99.528 477.489 97.584 475.113 96.072C472.845 94.56 469.821 93.804 466.041 93.804H459.885C455.241 93.804 451.839 94.668 449.679 96.396C447.627 98.016 446.601 100.446 446.601 103.686C446.601 106.71 447.519 108.978 449.355 110.49C451.191 111.894 454.161 112.92 458.265 113.568L469.767 115.188C480.351 116.7 488.127 119.562 493.095 123.774C498.171 127.878 500.709 133.98 500.709 142.08C500.709 150.72 497.739 157.47 491.799 162.33C485.967 167.082 477.327 169.458 465.879 169.458H458.751ZM531.75 169.62C527.106 169.62 523.38 168.27 520.572 165.57C517.872 162.87 516.522 159.198 516.522 154.554C516.522 149.91 517.872 146.238 520.572 143.538C523.38 140.73 527.106 139.326 531.75 139.326C536.394 139.326 540.066 140.73 542.766 143.538C545.574 146.238 546.978 149.91 546.978 154.554C546.978 159.198 545.574 162.87 542.766 165.57C540.066 168.27 536.394 169.62 531.75 169.62ZM565.383 168V149.694L611.877 96.72H566.841V78.9H635.529V97.206L588.549 150.18H637.311V168H565.383ZM657.336 168V149.532H688.44V97.206H661.386V78.9H707.88V149.532H735.42V168H657.336ZM696.54 63.996C692.436 63.996 689.196 62.97 686.82 60.918C684.444 58.758 683.256 55.896 683.256 52.332C683.256 48.768 684.444 45.96 686.82 43.908C689.196 41.748 692.436 40.668 696.54 40.668C700.644 40.668 703.884 41.748 706.26 43.908C708.636 45.96 709.824 48.768 709.824 52.332C709.824 55.896 708.636 58.758 706.26 60.918C703.884 62.97 700.644 63.996 696.54 63.996ZM749.774 197.16V78.9H769.538V95.91H774.074L769.538 100.608C769.538 93.372 771.698 87.702 776.018 83.598C780.338 79.386 786.17 77.28 793.514 77.28C802.478 77.28 809.66 80.358 815.06 86.514C820.46 92.67 823.16 100.932 823.16 111.3V135.438C823.16 142.35 821.918 148.398 819.434 153.582C817.058 158.658 813.656 162.6 809.228 165.408C804.8 168.216 799.562 169.62 793.514 169.62C786.17 169.62 780.338 167.568 776.018 163.464C771.698 159.252 769.538 153.528 769.538 146.292L774.074 150.99H769.376L770.024 172.212V197.16H749.774ZM786.386 152.124C791.57 152.124 795.62 150.612 798.536 147.588C801.452 144.564 802.91 140.244 802.91 134.628V112.272C802.91 106.656 801.452 102.336 798.536 99.312C795.62 96.288 791.57 94.776 786.386 94.776C781.31 94.776 777.314 96.342 774.398 99.474C771.482 102.498 770.024 106.764 770.024 112.272V134.628C770.024 140.136 771.482 144.456 774.398 147.588C777.314 150.612 781.31 152.124 786.386 152.124Z" fill="black"/>
<path d="M87.5142 88.2593L51.5508 144.039H83.9179L80.3215 181.225L116.285 125.446H83.9179L87.5142 88.2593Z" stroke="black" stroke-width="5" stroke-linecap="round" stroke-linejoin="round"/>
<path d="M125.828 34.7774C125.828 32.4071 122.749 30.4858 118.951 30.4858H50.1758C46.3773 30.4858 43.2983 32.4071 43.2983 34.7774V69.1098C43.2983 71.4801 46.3773 73.4014 50.1758 73.4014H118.951C122.749 73.4014 125.828 71.4801 125.828 69.1098V34.7774ZM115.044 66.1146H53.6955V39.0689H115.044V66.1146Z" fill="black"/>
<path d="M125.828 34.7774C125.828 32.4071 122.749 30.4858 118.951 30.4858H50.1758C46.3773 30.4858 43.2983 32.4071 43.2983 34.7774V69.1098C43.2983 71.4801 46.3773 73.4014 50.1758 73.4014H118.951C122.749 73.4014 125.828 71.4801 125.828 69.1098V34.7774ZM115.044 66.1146H53.6955V39.0689H115.044V66.1146Z" stroke="black"/>
<path d="M150.719 69.6925C147.343 68.0043 149.031 73.0691 150.719 69.6925C143.886 66.8631 150.719 78.5895 150.719 69.6925C150.719 73.4594 150.671 69.7887 150.719 69.6925C150.719 73.4594 146.952 69.6925 150.719 69.6925V28.002C150.719 12.9306 138.783 0.768555 123.712 0.768555H41.712C26.6407 0.768555 14.0524 12.9306 14.0524 28.002V180.944L4.16287 185.889C1.84722 187.047 0.385742 189.413 0.385742 192.002V212.502C0.385742 216.276 3.77166 219.435 7.54537 219.435H157.879C161.652 219.435 164.386 216.276 164.386 212.502V192.002C164.386 189.413 162.924 187.047 160.609 185.889L150.719 180.944V69.6925C150.719 65.349 150.719 60.7955 150.719 69.6925C150.719 80.997 150.543 68.5555 150.719 69.6925ZM150.719 205.769H14.0524V196.226L23.9419 191.281C26.2576 190.123 27.7191 187.758 27.7191 185.168V28.0015C27.7191 20.4644 34.1744 14.4352 41.712 14.4352H123.712C131.249 14.4352 137.052 20.4644 137.052 28.002V185.169C137.052 187.758 138.514 190.124 140.83 191.281L150.719 196.226V205.769Z" fill="black"/>
</svg>
