<svg width="2000" height="2000" viewBox="0 0 2000 2000" fill="none" xmlns="http://www.w3.org/2000/svg">
<rect width="2000" height="2000" fill="#3A6EA5"/>
<path d="M1036.37 897.896L862.066 1168.24H1018.94L1001.51 1348.48L1175.81 1078.13H1018.94L1036.37 897.896Z" stroke="#414141" stroke-opacity="0.55" stroke-width="23" stroke-linecap="round" stroke-linejoin="round"/>
<path d="M1023.3 881L849 1151.35H1005.87L988.443 1331.58L1162.75 1061.23H1005.87L1023.3 881Z" stroke="white" stroke-width="23" stroke-linecap="round" stroke-linejoin="round"/>
<path d="M1225 644.999C1225 633.953 1210.08 624.999 1191.67 624.999H858.333C839.923 624.999 825 633.953 825 644.999V804.999C825 816.046 839.923 824.999 858.333 824.999H1191.67C1210.08 824.999 1225 816.046 1225 804.999V644.999ZM1176.38 784.999H873.823V664.999H1176.38V784.999Z" fill="#414141" fill-opacity="0.55"/>
<path d="M1362.28 886.77C1345.92 878.588 1354.1 903.135 1362.28 886.77C1360.94 890.372 1362.28 882.694 1362.28 886.77C1362.28 929.892 1329.16 873.057 1362.28 886.77C1362.28 905.027 1344.03 886.77 1362.28 886.77C1362.28 886.77 1362.28 886.77 1362.28 817.774V716.743V615.711C1362.28 542.664 1304.43 483.718 1231.39 483.718H833.954C760.908 483.718 699.895 542.664 699.895 615.711V1356.98L651.963 1380.95C640.74 1386.56 633.657 1398.03 633.657 1410.58V1509.93C633.657 1528.22 650.067 1543.54 668.358 1543.54H1396.98C1415.27 1543.54 1428.52 1528.22 1428.52 1509.93V1410.58C1428.52 1398.03 1421.44 1386.56 1410.21 1380.95L1362.28 1356.98L1362.28 886.77C1363.63 883.168 1363.63 883.168 1362.28 886.77ZM1362.28 1477.3H699.895V1431.05L747.827 1407.08C759.051 1401.47 766.134 1390 766.134 1377.45V615.709C766.134 579.178 797.422 549.957 833.954 549.957H1231.39C1267.92 549.957 1296.04 579.178 1296.04 615.711V1377.46C1296.04 1390.01 1303.13 1401.47 1314.35 1407.08L1362.28 1431.05V1477.3Z" fill="#414141" fill-opacity="0.55"/>
<path d="M1209 621.8C1209 610.312 1194.08 601 1175.67 601H842.334C823.923 601 809 610.312 809 621.8V788.2C809 799.688 823.923 809 842.334 809H1175.67C1194.08 809 1209 799.688 1209 788.2V621.8ZM1156.73 773.683H859.393V642.6H1156.73V773.683Z" fill="white"/>
<path d="M1209 621.8C1209 610.312 1194.08 601 1175.67 601H842.334C823.923 601 809 610.312 809 621.8V788.2C809 799.688 823.923 809 842.334 809H1175.67C1194.08 809 1209 799.688 1209 788.2V621.8ZM1156.73 773.683H859.393V642.6H1156.73V773.683Z" stroke="black"/>
<path d="M1329.63 791.056C1313.26 782.874 1321.44 807.422 1329.63 791.056C1296.51 777.343 1329.63 834.178 1329.63 791.056C1329.63 809.313 1329.39 791.522 1329.63 791.056C1329.63 809.313 1311.37 791.056 1329.63 791.056V588.993C1329.63 515.946 1271.78 457 1198.73 457H801.298C728.251 457 667.239 515.946 667.239 588.993V1330.26L619.307 1354.23C608.083 1359.84 601 1371.31 601 1383.86V1483.22C601 1501.51 617.411 1516.82 635.701 1516.82H1364.33C1382.62 1516.82 1395.86 1501.51 1395.86 1483.22V1383.86C1395.86 1371.31 1388.78 1359.84 1377.56 1354.23L1329.63 1330.26V791.056C1329.63 770.004 1329.63 747.935 1329.63 791.056C1329.63 845.846 1328.77 785.545 1329.63 791.056ZM1329.63 1450.58H667.239V1404.33L715.171 1380.36C726.394 1374.75 733.477 1363.29 733.477 1350.74V588.991C733.477 552.46 764.765 523.239 801.298 523.239H1198.73C1235.26 523.239 1263.39 552.46 1263.39 588.993V1350.74C1263.39 1363.29 1270.47 1374.75 1281.69 1380.37L1329.63 1404.33V1450.58Z" fill="white"/>
</svg>
