<svg width="1000" height="1328" viewBox="0 0 1000 1328" fill="none" xmlns="http://www.w3.org/2000/svg">
<path d="M522.829 543.212L301.217 883.582L500.374 883.773L478.028 1110.81L699.64 770.436L500.483 770.245L522.829 543.212Z" stroke="black" stroke-width="35" stroke-linecap="round" stroke-linejoin="round"/>
<path d="M916.667 418.304C896.078 408.058 906.372 438.797 916.667 418.304C875 401.132 916.667 472.301 916.667 418.304C916.373 418.888 916.667 441.166 916.667 418.304C916.667 441.166 893.698 418.304 916.667 418.304V165.281C916.667 73.8123 843.888 0 751.99 0H251.99C160.091 0 83.3333 73.8123 83.3333 165.281V1093.5L23.0313 1123.51C8.91146 1130.54 0 1144.89 0 1160.61V1285.02C0 1307.93 20.6458 1327.1 43.6563 1327.1H960.323C983.333 1327.1 1000 1307.93 1000 1285.02V1160.61C1000 1144.89 991.089 1130.54 976.969 1123.51L916.667 1093.5V418.304C916.667 364.308 916.667 391.943 916.667 418.304C916.667 486.912 915.592 411.404 916.667 418.304ZM916.667 1244.16H83.3333V1186.24L143.635 1156.23C157.755 1149.21 166.667 1134.85 166.667 1119.13V165.279C166.667 119.535 206.029 82.9439 251.99 82.9439H751.99C797.948 82.9439 833.333 119.535 833.333 165.281V1119.14C833.333 1134.85 842.245 1149.21 856.365 1156.24L916.667 1186.24V1244.16Z" fill="black"/>
<mask id="path-3-inside-1_1_55" fill="white">
<path d="M243 221C243 193.386 265.386 171 293 171H707C734.614 171 757 193.386 757 221V396C757 423.614 734.614 446 707 446H293C265.386 446 243 423.614 243 396V221Z"/>
</mask>
<path d="M183 221C183 168.533 225.533 126 278 126H722C774.467 126 817 168.533 817 221H697C697 218.239 697 216 697 216H303C303 216 303 218.239 303 221H183ZM817 396C817 448.467 774.467 491 722 491H278C225.533 491 183 448.467 183 396H303C303 398.761 303 401 303 401H697C697 401 697 398.761 697 396H817ZM278 491C225.533 491 183 448.467 183 396V221C183 168.533 225.533 126 278 126L303 216C303 216 303 218.239 303 221V396C303 398.761 303 401 303 401L278 491ZM722 126C774.467 126 817 168.533 817 221V396C817 448.467 774.467 491 722 491L697 401C697 401 697 398.761 697 396V221C697 218.239 697 216 697 216L722 126Z" fill="black" mask="url(#path-3-inside-1_1_55)"/>
</svg>
