<svg width="830" height="220" viewBox="0 0 830 220" fill="none" xmlns="http://www.w3.org/2000/svg">
<path d="M273.248 169.62C265.688 169.62 259.046 168.216 253.322 165.408C247.706 162.492 243.332 158.442 240.2 153.258C237.176 147.966 235.664 141.756 235.664 134.628V83.112C235.664 75.876 237.176 69.666 240.2 64.482C243.332 59.298 247.706 55.302 253.322 52.494C259.046 49.578 265.688 48.12 273.248 48.12C280.916 48.12 287.504 49.578 293.012 52.494C298.628 55.302 303.002 59.298 306.134 64.482C309.266 69.666 310.832 75.876 310.832 83.112H290.42C290.42 77.496 288.908 73.23 285.884 70.314C282.968 67.398 278.756 65.94 273.248 65.94C267.74 65.94 263.474 67.398 260.45 70.314C257.426 73.23 255.914 77.442 255.914 82.95V134.628C255.914 140.136 257.426 144.402 260.45 147.426C263.474 150.45 267.74 151.962 273.248 151.962C278.756 151.962 282.968 150.45 285.884 147.426C288.908 144.402 290.42 140.136 290.42 134.628V122.64H270.332V105.144H310.832V134.628C310.832 141.756 309.266 147.966 306.134 153.258C303.002 158.442 298.628 162.492 293.012 165.408C287.504 168.216 280.916 169.62 273.248 169.62ZM354.995 169.62C345.815 169.62 338.579 167.19 333.287 162.33C327.995 157.47 325.349 150.936 325.349 142.728C325.349 133.98 328.265 127.23 334.097 122.478C339.929 117.726 348.191 115.35 358.883 115.35H381.077V107.736C381.077 103.416 379.673 100.068 376.865 97.692C374.057 95.208 370.223 93.966 365.363 93.966C360.935 93.966 357.263 94.938 354.347 96.882C351.431 98.826 349.703 101.472 349.163 104.82H329.399C330.371 96.396 334.151 89.7 340.739 84.732C347.327 79.764 355.751 77.28 366.011 77.28C376.919 77.28 385.505 80.034 391.769 85.542C398.141 90.942 401.327 98.286 401.327 107.574V168H381.725V152.448H378.485L381.725 148.074C381.725 154.662 379.295 159.9 374.435 163.788C369.575 167.676 363.095 169.62 354.995 169.62ZM361.637 154.392C367.361 154.392 372.005 152.934 375.569 150.018C379.241 147.102 381.077 143.322 381.077 138.678V127.824H359.207C355.103 127.824 351.809 129.012 349.325 131.388C346.841 133.764 345.599 136.896 345.599 140.784C345.599 144.996 347.003 148.344 349.811 150.828C352.727 153.204 356.669 154.392 361.637 154.392ZM453.751 169.458C446.947 169.458 441.007 168.378 435.931 166.218C430.855 164.058 426.859 161.088 423.943 157.308C421.135 153.42 419.623 148.884 419.407 143.7H439.657C439.873 146.508 441.223 148.776 443.707 150.504C446.299 152.232 449.647 153.096 453.751 153.096H460.879C465.847 153.096 469.573 152.124 472.057 150.18C474.541 148.236 475.783 145.59 475.783 142.242C475.783 139.11 474.649 136.68 472.381 134.952C470.221 133.116 466.819 131.928 462.175 131.388L451.159 129.768C441.007 128.364 433.555 125.664 428.803 121.668C424.051 117.672 421.675 111.678 421.675 103.686C421.675 95.37 424.483 88.944 430.099 84.408C435.715 79.764 443.977 77.442 454.885 77.442H461.041C470.977 77.442 478.915 79.656 484.855 84.084C490.795 88.512 493.981 94.452 494.413 101.904H474.163C473.839 99.528 472.489 97.584 470.113 96.072C467.845 94.56 464.821 93.804 461.041 93.804H454.885C450.241 93.804 446.839 94.668 444.679 96.396C442.627 98.016 441.601 100.446 441.601 103.686C441.601 106.71 442.519 108.978 444.355 110.49C446.191 111.894 449.161 112.92 453.265 113.568L464.767 115.188C475.351 116.7 483.127 119.562 488.095 123.774C493.171 127.878 495.709 133.98 495.709 142.08C495.709 150.72 492.739 157.47 486.799 162.33C480.967 167.082 472.327 169.458 460.879 169.458H453.751ZM526.75 169.62C522.106 169.62 518.38 168.27 515.572 165.57C512.872 162.87 511.522 159.198 511.522 154.554C511.522 149.91 512.872 146.238 515.572 143.538C518.38 140.73 522.106 139.326 526.75 139.326C531.394 139.326 535.066 140.73 537.766 143.538C540.574 146.238 541.978 149.91 541.978 154.554C541.978 159.198 540.574 162.87 537.766 165.57C535.066 168.27 531.394 169.62 526.75 169.62ZM560.383 168V149.694L606.877 96.72H561.841V78.9H630.529V97.206L583.549 150.18H632.311V168H560.383ZM652.336 168V149.532H683.44V97.206H656.386V78.9H702.88V149.532H730.42V168H652.336ZM691.54 63.996C687.436 63.996 684.196 62.97 681.82 60.918C679.444 58.758 678.256 55.896 678.256 52.332C678.256 48.768 679.444 45.96 681.82 43.908C684.196 41.748 687.436 40.668 691.54 40.668C695.644 40.668 698.884 41.748 701.26 43.908C703.636 45.96 704.824 48.768 704.824 52.332C704.824 55.896 703.636 58.758 701.26 60.918C698.884 62.97 695.644 63.996 691.54 63.996ZM744.774 197.16V78.9H764.538V95.91H769.074L764.538 100.608C764.538 93.372 766.698 87.702 771.018 83.598C775.338 79.386 781.17 77.28 788.514 77.28C797.478 77.28 804.66 80.358 810.06 86.514C815.46 92.67 818.16 100.932 818.16 111.3V135.438C818.16 142.35 816.918 148.398 814.434 153.582C812.058 158.658 808.656 162.6 804.228 165.408C799.8 168.216 794.562 169.62 788.514 169.62C781.17 169.62 775.338 167.568 771.018 163.464C766.698 159.252 764.538 153.528 764.538 146.292L769.074 150.99H764.376L765.024 172.212V197.16H744.774ZM781.386 152.124C786.57 152.124 790.62 150.612 793.536 147.588C796.452 144.564 797.91 140.244 797.91 134.628V112.272C797.91 106.656 796.452 102.336 793.536 99.312C790.62 96.288 786.57 94.776 781.386 94.776C776.31 94.776 772.314 96.342 769.398 99.474C766.482 102.498 765.024 106.764 765.024 112.272V134.628C765.024 140.136 766.482 144.456 769.398 147.588C772.314 150.612 776.31 152.124 781.386 152.124Z" fill="white"/>
<path d="M87.5142 88.2593L51.5508 144.039H83.9179L80.3215 181.225L116.285 125.446H83.9179L87.5142 88.2593Z" stroke="white" stroke-width="5" stroke-linecap="round" stroke-linejoin="round"/>
<path d="M125.828 34.7774C125.828 32.4071 122.749 30.4858 118.951 30.4858H50.1758C46.3773 30.4858 43.2983 32.4071 43.2983 34.7774V69.1098C43.2983 71.4801 46.3773 73.4014 50.1758 73.4014H118.951C122.749 73.4014 125.828 71.4801 125.828 69.1098V34.7774ZM115.044 66.1146H53.6955V39.0689H115.044V66.1146Z" fill="white"/>
<path d="M125.828 34.7774C125.828 32.4071 122.749 30.4858 118.951 30.4858H50.1758C46.3773 30.4858 43.2983 32.4071 43.2983 34.7774V69.1098C43.2983 71.4801 46.3773 73.4014 50.1758 73.4014H118.951C122.749 73.4014 125.828 71.4801 125.828 69.1098V34.7774ZM115.044 66.1146H53.6955V39.0689H115.044V66.1146Z" stroke="black"/>
<path d="M150.719 69.6925C147.343 68.0043 149.031 73.0691 150.719 69.6925C143.886 66.8631 150.719 78.5895 150.719 69.6925C150.719 73.4594 150.671 69.7887 150.719 69.6925C150.719 73.4594 146.952 69.6925 150.719 69.6925V28.002C150.719 12.9306 138.783 0.768555 123.712 0.768555H41.712C26.6407 0.768555 14.0524 12.9306 14.0524 28.002V180.944L4.16287 185.889C1.84722 187.047 0.385742 189.413 0.385742 192.002V212.502C0.385742 216.276 3.77166 219.435 7.54537 219.435H157.879C161.652 219.435 164.386 216.276 164.386 212.502V192.002C164.386 189.413 162.924 187.047 160.609 185.889L150.719 180.944V69.6925C150.719 65.349 150.719 60.7955 150.719 69.6925C150.719 80.997 150.543 68.5555 150.719 69.6925ZM150.719 205.769H14.0524V196.226L23.9419 191.281C26.2576 190.123 27.7191 187.758 27.7191 185.168V28.0015C27.7191 20.4644 34.1744 14.4352 41.712 14.4352H123.712C131.249 14.4352 137.052 20.4644 137.052 28.002V185.169C137.052 187.758 138.514 190.124 140.83 191.281L150.719 196.226V205.769Z" fill="white"/>
</svg>
