<svg width="795" height="1060" viewBox="0 0 795 1060" fill="none" xmlns="http://www.w3.org/2000/svg">
<path d="M422.304 424L248 694.349H404.874L387.443 874.581L561.748 604.233H404.874L422.304 424Z" stroke="white" stroke-width="23" stroke-linecap="round" stroke-linejoin="round"/>
<path d="M608 164.8C608 153.312 593.078 144 574.667 144H241.334C222.923 144 208 153.312 208 164.8V331.2C208 342.688 222.923 352 241.334 352H574.667C593.078 352 608 342.688 608 331.2V164.8ZM555.733 316.683H258.393V185.6H555.733V316.683Z" fill="white"/>
<path d="M608 164.8C608 153.312 593.078 144 574.667 144H241.334C222.923 144 208 153.312 208 164.8V331.2C208 342.688 222.923 352 241.334 352H574.667C593.078 352 608 342.688 608 331.2V164.8ZM555.733 316.683H258.393V185.6H555.733V316.683Z" stroke="black"/>
<path d="M728.626 334.056C712.261 325.874 720.443 350.422 728.626 334.056C695.507 320.343 728.626 377.178 728.626 334.056C728.626 352.313 728.393 334.522 728.626 334.056C728.626 352.313 710.369 334.056 728.626 334.056V131.993C728.626 58.9463 670.777 0 597.73 0H200.298C127.251 0 66.2387 58.9463 66.2387 131.993V873.265L18.3067 897.231C7.0834 902.842 0 914.308 0 926.858V1026.22C0 1044.51 16.4106 1059.82 34.7008 1059.82H763.327C781.617 1059.82 794.865 1044.51 794.865 1026.22V926.858C794.865 914.308 787.781 902.842 776.558 897.231L728.626 873.265V334.056C728.626 313.004 728.626 290.935 728.626 334.056C728.626 388.846 727.771 328.545 728.626 334.056ZM728.626 993.581H66.2387V947.33L114.171 923.364C125.394 917.752 132.477 906.287 132.477 893.736V131.991C132.477 95.4604 163.765 66.2387 200.298 66.2387H597.73C634.261 66.2387 662.387 95.4604 662.387 131.993V893.738C662.387 906.289 669.471 917.754 680.694 923.366L728.626 947.33V993.581Z" fill="white"/>
</svg>
